# xmcd
#
# Track frame offsets: 
#        150
#        13524
#        25716
#        37858
#        51287
#        63921
#        77206
#        92098
#        105879
#        119178
#        131855
#        144975
#        157579
#        171122
#        184451
#        198585
#        214076
#        227409
#        239277
#        250988
#        262757
#        274104
#        285613
#        298458
#        310070
#        322151
#
# Disc length: 4452 seconds
#
# Revision: 0
# Processed by: cddbd v1.5.2PL0 Copyright (c) Steve Scherf et al.
# Submitted via: ExactAudioCopy v1.0b3
#
DISCID=7511621a
DTITLE=Various Artist - Memphis Harp and Jug Blowers
DYEAR=2009
DGENRE=Blues
TTITLE0=Wallace, Minnie - Dirty Butter
TTITLE1=Wallace, Minnie - The Old Folks Started It (take 1)
TTITLE2=Wallace, Minnie - The Old Folks Started It (take 2)
TTITLE3=Davenport, Jed - How Long Blues How Long
TTITLE4=Davenport, Jed - Cow Cow Blues
TTITLE5=Davenport, Jed And His Beale Street Jug Band - Beale Street Br
TTITLE5=eakdown
TTITLE6=Davenport, Jed And His Beale Street Jug Band - You Ought To Mo
TTITLE6=ve Out Of Town
TTITLE7=Davenport, Jed And His Beale Street Jug Band - The Dirty Dozen
TTITLE8=Davenport, Jed And His Beale Street Jug Band - Jug Blues
TTITLE9=Davenport, Jed And His Beale Street Jug Band - Save Me Some
TTITLE10=Davenport, Jed And His Beale Street Jug Band - Piccolo Blues
TTITLE11=Beale Street Rounders (with Jed Davenport) - I'm Sittin' On T
TTITLE11=op Of The World
TTITLE12=Beale Street Rounders (with Jed Davenport) - Talkin' 'Bout Yo
TTITLE12=Yo
TTITLE13=Wallace, Minnie And Her Night Hawks - The Cockeyed World
TTITLE14=Wallace, Minnie And Her Night Hawks - Field Mouse Stomp
TTITLE15=Wallace, Minnie And Her Night Hawks - Let's Do That Thing
TTITLE16=Wallace, Minnie And Her Night Hawks - Pick 'Em Up And Put 'Em
TTITLE16=Down
TTITLE17=Little Buddy Doyle - Hard Scufflin' Blues
TTITLE18=Little Buddy Doyle - Grief Will Kill You
TTITLE19=Little Buddy Doyle - Slick Capers Blues
TTITLE20=Little Buddy Doyle - Renewed Love Blues
TTITLE21=Little Buddy Doyle - Bad In Mind Blues
TTITLE22=Little Buddy Doyle - Three-Sixty-Nine Blues
TTITLE23=Little Buddy Doyle - She's Got Good Dry Goods
TTITLE24=Little Buddy Doyle - Lost Baby Blues
TTITLE25=Little Buddy Doyle - Sweet Man Blues
EXTD=
EXTT0=
EXTT1=
EXTT2=
EXTT3=
EXTT4=
EXTT5=
EXTT6=
EXTT7=
EXTT8=
EXTT9=
EXTT10=
EXTT11=
EXTT12=
EXTT13=
EXTT14=
EXTT15=
EXTT16=
EXTT17=
EXTT18=
EXTT19=
EXTT20=
EXTT21=
EXTT22=
EXTT23=
EXTT24=
EXTT25=
PLAYORDER=
